<svg xmlns="http://www.w3.org/2000/svg" xmlns:xlink="http://www.w3.org/1999/xlink" width="998" height="518" viewBox="0 0 998 518"><defs><clipPath id="a"><rect width="998" height="518" transform="translate(140 299)" fill="#fff" stroke="#707070" stroke-width="1"/></clipPath><linearGradient id="b" y1="0.5" x2="1" y2="0.5" gradientUnits="objectBoundingBox"><stop offset="0" stop-color="gray" stop-opacity="0.251"/><stop offset="0.54" stop-color="gray" stop-opacity="0.122"/><stop offset="1" stop-color="gray" stop-opacity="0.102"/></linearGradient></defs><g transform="translate(-140 -299)" clip-path="url(#a)"><g transform="translate(263.815 299.004)"><path d="M435.31,101.066c-48.1.064-94.393-13.57-138.675-28.717s-88.223-32.108-135.426-39.3c-30.358-4.62-64.879-4.2-88.609,12.579C49.758,61.771,43.143,88.48,39.951,113.156c-2.4,18.563-3.507,38.047,5.482,55.027,6.241,11.788,16.923,21.5,24.451,32.738C96.163,240,80.36,289.93,54.821,329.92c-11.975,18.763-26,36.747-35.055,56.585S7,428.836,16.234,448.416c9.15,19.406,29.817,33.491,52,43.111,45.041,19.574,97.482,23.769,148.513,25.384,112.963,3.584,226.145-3.726,339.024-11.035,41.772-2.7,83.731-5.424,124.642-13.255,22.714-4.343,46.1-10.791,62.208-24.921,20.442-17.939,24.625-47.229,9.748-68.282-24.946-35.312-90.726-41.972-108.613-80.18-9.864-21.034-1.358-45.157,11.17-65.432,26.87-43.5,73.121-82.47,73.9-131.128.534-33.414-23.518-66.011-59.441-80.534-37.654-15.211-88.995-11.3-115.376,17.051C526.878,88.4,477.777,101.021,435.31,101.066Z" transform="translate(-10.881 -30.538)" fill="#53e3d2" opacity="0.1"/><path d="M649.519,445.791s-7.908-5.218-15.745-1.506c0,0,2.413,4.646,12.335,4.208Z" transform="translate(-10.881 -30.538)" fill="#53e3d2"/><path d="M650.522,446.068s2.406,9.163-3.629,15.4c0,0-3.629-3.777,0-13.03Z" transform="translate(-10.881 -30.538)" fill="#53e3d2"/><path d="M660.354,437.272s-.586-7.792-18.184-5.205c0,0-.084,5.025,6.093,7.406S657.272,439.846,660.354,437.272Z" transform="translate(-10.881 -30.538)" fill="#53e3d2"/><path d="M661.461,437.221s7.438,2.387.8,18.892c0,0-4.909-1.094-5.791-7.663S658.205,439.614,661.461,437.221Z" transform="translate(-10.881 -30.538)" fill="#53e3d2"/><path d="M671.4,426.166s1.01-12.824-16.974-11.511c0,0-1.287,11.582,13.8,14.593Z" transform="translate(-10.881 -30.538)" fill="#53e3d2"/><path d="M683.28,411.689s-2.464-14.535-20.442-10.205c0,0-.064,12.566,17.508,13.667Z" transform="translate(-10.881 -30.538)" fill="#53e3d2"/><path d="M691.967,396.722s-4.131-14.156-21.941-9.922c0,0,4.24,12.734,20.758,12.534Z" transform="translate(-10.881 -30.538)" fill="#53e3d2"/><path d="M700.216,382.1s-4.034-14.69-21.234-10.3c0,0,5.74,13.956,20.095,12.779Z" transform="translate(-10.881 -30.538)" fill="#53e3d2"/><path d="M705.53,368.218s-3.1-17.965-19.136-13.988c0,0,4.659,16.344,17.959,16.607Z" transform="translate(-10.881 -30.538)" fill="#53e3d2"/><path d="M710.517,351.443s-3.726-18.107-19.947-12.869c0,0,6.357,17.116,18.795,15.346Z" transform="translate(-10.881 -30.538)" fill="#53e3d2"/><path d="M713.58,335.833s-5.913-18.113-18.454-17.624c0,0,6.042,19.13,17.405,21.234Z" transform="translate(-10.881 -30.538)" fill="#53e3d2"/><path d="M715.562,320.6s-6.434-21.8-16.639-20.121c0,0,4.453,16.665,16.279,23.518Z" transform="translate(-10.881 -30.538)" fill="#53e3d2"/><path d="M716.681,302.419s-6.036-18.164-16.086-18.892c0,0,4.105,17.875,15.887,23.614Z" transform="translate(-10.881 -30.538)" fill="#53e3d2"/><path d="M717.9,285.458s-7.522-18.184-14.156-18.6c0,0,3.269,17.907,13.512,21.581Z" transform="translate(-10.881 -30.538)" fill="#53e3d2"/><path d="M718.727,269.68s-4.626-19.747-11.273-21.388c0,0,.907,16.157,10.6,22.868Z" transform="translate(-10.881 -30.538)" fill="#53e3d2"/><path d="M721.237,249.013s-4.865-15.745-10.25-18.145c0,0,1.062,18.563,9.008,21.993Z" transform="translate(-10.881 -30.538)" fill="#53e3d2"/><path d="M723.315,235.5l.978-27.758s-10.07,20.925-1.705,32.629Z" transform="translate(-10.881 -30.538)" fill="#53e3d2"/><path d="M731.088,207.89s7.252-20.268,9.008-21.4c0,0-14.22,13.152-12.83,30.068Z" transform="translate(-10.881 -30.538)" fill="#53e3d2"/><path d="M671.885,426.07s12.753-1.667,12.373,16.356c0,0-11.524,1.879-15.288-13.03Z" transform="translate(-10.881 -30.538)" fill="#53e3d2"/><path d="M683.885,411.2s14.735-.045,13.512,18.4c0,0-12.373,2.213-16.453-14.915Z" transform="translate(-10.881 -30.538)" fill="#53e3d2"/><path d="M692.108,397.912s13.377-6.274,21.935,9.922c0,0-12.354,5.225-23.119-7.3Z" transform="translate(-10.881 -30.538)" fill="#53e3d2"/><path d="M700.512,382.238s13.7-6.673,21.742,9.143c0,0-14.272,4.916-22.874-6.64Z" transform="translate(-10.881 -30.538)" fill="#53e3d2"/><path d="M705.357,368.61s13.184-12.592,23.7.142c0,0-13.467,10.366-24.309,2.664Z" transform="translate(-10.881 -30.538)" fill="#53e3d2"/><path d="M709.771,351.012s13.261-12.869,23.7.592c0,0-14.883,10.572-24.174,2.111Z" transform="translate(-10.881 -30.538)" fill="#53e3d2"/><path d="M712.248,335.318s10.218-16.086,22.25-12.5c0,0-10.6,17.032-22.134,16.273Z" transform="translate(-10.881 -30.538)" fill="#53e3d2"/><path d="M715.259,320.493s10.3-20.256,20.037-16.73c0,0-7.425,15.571-20.3,20.146Z" transform="translate(-10.881 -30.538)" fill="#53e3d2"/><path d="M715.974,301.364s10.585-15.945,20.5-13.995c0,0-8.654,16.17-21.53,18.608Z" transform="translate(-10.881 -30.538)" fill="#53e3d2"/><path d="M716.8,285.1s8.2-17.894,14.87-18.016c0,0-3.938,17.766-14.317,21.053Z" transform="translate(-10.881 -30.538)" fill="#53e3d2"/><path d="M718.406,269.294s9.118-18.119,15.97-18.158c0,0-4.665,15.494-15.668,19.747Z" transform="translate(-10.881 -30.538)" fill="#53e3d2"/><path d="M719.776,250.145s6.82-14.992,12.47-16.691c0,0-3.41,18.274-11.717,20.667Z" transform="translate(-10.881 -30.538)" fill="#53e3d2"/><path d="M724.126,234.954l15.243-23.222s-3.906,22.907-17.47,27.668Z" transform="translate(-10.881 -30.538)" fill="#53e3d2"/><path d="M734.588,209.763s17.714-12.225,18.358-14.2c0,0-9.008,17.122-25.738,20.146Z" transform="translate(-10.881 -30.538)" fill="#53e3d2"/><path d="M735.65,204.261s20.339-19.554,25.532-19.535c0,0-16.775.766-26.021,18.493Z" transform="translate(-10.881 -30.538)" fill="#53e3d2"/><path d="M719.976,253.047l.74.1c3.822-29.914,9.394-47.615,15.687-49.783l-.245-.708C729.486,204.969,723.875,222.4,719.976,253.047Z" transform="translate(-10.881 -30.538)" fill="#444053"/><path d="M714.352,324.586l1.12.09c.238-2.793.418-5.649.54-8.5,1.068-24.76,2.722-47.5,4.9-64.544l-.643-.8c-2.181,17.083-4.3,40.5-5.373,65.3C714.77,318.962,714.59,321.806,714.352,324.586Z" transform="translate(-10.881 -30.538)" fill="#444053"/><path d="M628.645,460.063c.193-.084,19.9-8.886,40.357-29.875a162.289,162.289,0,0,0,29.5-41.824c9.459-19.258,15.224-42.924,17.154-65.914l-1.165.547c-4.343,51.6-27.835,86.865-46.515,106.072-20.256,20.8-39.746,29.515-39.939,29.6Z" transform="translate(-10.881 -30.538)" fill="#444053"/><path d="M679.677,85.379H61.4A5.508,5.508,0,0,0,55.9,90.887v16.048H685.185V90.887A5.508,5.508,0,0,0,679.677,85.379Z" transform="translate(-10.881 -30.538)" fill="#3f3d56"/><path d="M55.9,106.934V468.061A11.106,11.106,0,0,0,67,479.167H674.079a11.106,11.106,0,0,0,11.106-11.106V106.934Z" transform="translate(-10.881 -30.538)" fill="#fff"/><circle cx="2.574" cy="2.574" r="2.574" transform="translate(52.409 62.884)" fill="#fa5959" opacity="0.8"/><circle cx="2.574" cy="2.574" r="2.574" transform="translate(59.486 62.884)" fill="#fed253" opacity="0.8"/><circle cx="2.574" cy="2.574" r="2.574" transform="translate(66.564 62.884)" fill="#8ccf4d" opacity="0.8"/><rect width="505.747" height="222.387" transform="translate(103.511 136.61)" opacity="0.05"/><rect width="498.026" height="217.484" transform="translate(107.372 138.296)" fill="#3f3d56"/><path d="M254.019,224.807a49.545,49.545,0,1,0,49.545,49.545,49.545,49.545,0,0,0-49.545-49.545Zm8.886,50.736V299H245.39v-23.46a14.51,14.51,0,1,1,17.515,0Z" transform="translate(-10.881 -30.538)" fill="#53e3d2"/><path d="M254.019,224.807a49.545,49.545,0,1,0,49.545,49.545,49.545,49.545,0,0,0-49.545-49.545Zm8.886,50.736V299H245.39v-23.46a14.51,14.51,0,1,1,17.515,0Z" transform="translate(-10.881 -30.538)" opacity="0.05"/><path d="M254.019,210.651a63.7,63.7,0,1,0,63.7,63.7,63.7,63.7,0,0,0-63.7-63.7Zm11.421,65.232v30.158H242.92V275.883a18.66,18.66,0,1,1,22.521,0Z" transform="translate(-10.881 -30.538)" fill="#53e3d2"/><rect width="205.902" height="21.877" transform="translate(333.221 235.456)" fill="#fff"/><rect width="44.398" height="21.877" transform="translate(494.725 275.349)" fill="#53e3d2"/><path d="M364.37,276.6h-3.726l3.314-3.307a.328.328,0,0,0,0-.457.322.322,0,0,0-.457,0l-3.314,3.314v-3.732a.322.322,0,0,0-.322-.322.328.328,0,0,0-.322.322v3.732l-3.307-3.333a.322.322,0,0,0-.457,0,.328.328,0,0,0,0,.457l3.314,3.307h-3.732a.328.328,0,0,0-.322.322.322.322,0,0,0,.322.322h3.732l-3.314,3.314a.328.328,0,0,0,0,.457.335.335,0,0,0,.457,0l3.307-3.314v3.726a.322.322,0,0,0,.643,0v-3.726L363.5,281a.335.335,0,0,0,.457,0,.328.328,0,0,0,0-.457l-3.314-3.314h3.726a.312.312,0,1,0,0-.624Z" transform="translate(-10.881 -30.538)" fill="#53e3d2"/><path d="M377.882,276.6h-3.726l3.314-3.307a.328.328,0,0,0,0-.457.322.322,0,0,0-.457,0l-3.314,3.314v-3.732a.322.322,0,0,0-.322-.322.328.328,0,0,0-.322.322v3.732l-3.307-3.333a.322.322,0,0,0-.457,0,.328.328,0,0,0,0,.457l3.314,3.307h-3.732a.328.328,0,0,0-.322.322.322.322,0,0,0,.322.322h3.732l-3.314,3.314a.328.328,0,0,0,0,.457.335.335,0,0,0,.457,0l3.307-3.314v3.726a.322.322,0,0,0,.643,0v-3.726L377.013,281a.335.335,0,0,0,.457,0,.328.328,0,0,0,0-.457l-3.314-3.314h3.726a.312.312,0,1,0,0-.624Z" transform="translate(-10.881 -30.538)" fill="#53e3d2"/><path d="M391.394,276.6h-3.726l3.314-3.307a.328.328,0,0,0,0-.457.322.322,0,0,0-.457,0l-3.314,3.314v-3.732a.322.322,0,0,0-.322-.322.328.328,0,0,0-.322.322v3.732l-3.307-3.333a.322.322,0,0,0-.457,0,.328.328,0,0,0,0,.457l3.314,3.307h-3.732a.328.328,0,0,0-.322.322.322.322,0,0,0,.322.322h3.732l-3.314,3.314a.328.328,0,0,0,0,.457.335.335,0,0,0,.457,0l3.307-3.314v3.726a.322.322,0,1,0,.643,0v-3.726L390.526,281a.335.335,0,0,0,.457,0,.328.328,0,0,0,0-.457l-3.314-3.314h3.726a.312.312,0,1,0,0-.624Z" transform="translate(-10.881 -30.538)" fill="#53e3d2"/><path d="M404.907,276.6h-3.726l3.314-3.307a.328.328,0,0,0,0-.457.322.322,0,0,0-.457,0l-3.314,3.314v-3.732a.322.322,0,0,0-.322-.322.328.328,0,0,0-.322.322v3.732l-3.307-3.333a.322.322,0,0,0-.457,0,.328.328,0,0,0,0,.457l3.314,3.307H395.9a.328.328,0,0,0-.322.322.322.322,0,0,0,.322.322h3.732l-3.314,3.314a.328.328,0,0,0,0,.457.335.335,0,0,0,.457,0l3.307-3.314v3.726a.322.322,0,1,0,.643,0v-3.726L404.038,281a.335.335,0,0,0,.457,0,.328.328,0,0,0,0-.457l-3.314-3.314h3.726a.312.312,0,1,0,0-.624Z" transform="translate(-10.881 -30.538)" fill="#53e3d2"/><path d="M418.419,276.6h-3.726l3.314-3.307a.328.328,0,0,0,0-.457.322.322,0,0,0-.457,0l-3.314,3.314v-3.732a.322.322,0,0,0-.322-.322.328.328,0,0,0-.322.322v3.732l-3.307-3.333a.322.322,0,0,0-.457,0,.328.328,0,0,0,0,.457l3.314,3.307h-3.732a.328.328,0,0,0-.322.322.322.322,0,0,0,.322.322h3.732l-3.314,3.314a.328.328,0,0,0,0,.457.335.335,0,0,0,.457,0l3.307-3.314v3.726a.322.322,0,1,0,.643,0v-3.726L417.55,281a.335.335,0,0,0,.457,0,.328.328,0,0,0,0-.457l-3.314-3.314h3.726a.312.312,0,1,0,0-.624Z" transform="translate(-10.881 -30.538)" fill="#53e3d2"/><path d="M431.931,276.6h-3.726l3.314-3.307a.328.328,0,0,0,0-.457.322.322,0,0,0-.457,0l-3.314,3.314v-3.732a.322.322,0,0,0-.322-.322.328.328,0,0,0-.322.322v3.732L423.8,272.82a.322.322,0,0,0-.457,0,.328.328,0,0,0,0,.457l3.314,3.307h-3.732a.328.328,0,0,0-.322.322.322.322,0,0,0,.322.322h3.732l-3.314,3.314a.328.328,0,0,0,0,.457.335.335,0,0,0,.457,0l3.307-3.314v3.726a.322.322,0,0,0,.643,0v-3.726L431.063,281a.335.335,0,0,0,.457,0,.328.328,0,0,0,0-.457l-3.314-3.314h3.726a.312.312,0,1,0,0-.624Z" transform="translate(-10.881 -30.538)" fill="#53e3d2"/><path d="M445.444,276.6h-3.726l3.314-3.307a.328.328,0,0,0,0-.457.322.322,0,0,0-.457,0l-3.314,3.314v-3.732a.322.322,0,0,0-.322-.322.328.328,0,0,0-.322.322v3.732l-3.307-3.333a.322.322,0,0,0-.457,0,.328.328,0,0,0,0,.457l3.314,3.307h-3.732a.328.328,0,0,0-.322.322.322.322,0,0,0,.322.322h3.732l-3.314,3.314a.328.328,0,0,0,0,.457.335.335,0,0,0,.457,0l3.307-3.314v3.726a.322.322,0,0,0,.643,0v-3.726L444.575,281a.335.335,0,0,0,.457,0,.328.328,0,0,0,0-.457l-3.314-3.314h3.726a.312.312,0,1,0,0-.624Z" transform="translate(-10.881 -30.538)" fill="#53e3d2"/><path d="M458.956,276.6h-3.726l3.314-3.307a.328.328,0,0,0,0-.457.322.322,0,0,0-.457,0l-3.314,3.314v-3.732a.322.322,0,0,0-.322-.322.328.328,0,0,0-.322.322v3.732l-3.307-3.333a.322.322,0,0,0-.457,0,.328.328,0,0,0,0,.457l3.314,3.307h-3.732a.328.328,0,0,0-.322.322.322.322,0,0,0,.322.322h3.732l-3.314,3.314a.328.328,0,0,0,0,.457.335.335,0,0,0,.457,0l3.307-3.314v3.726a.322.322,0,0,0,.643,0v-3.726L458.087,281a.335.335,0,0,0,.457,0,.328.328,0,0,0,0-.457l-3.314-3.314h3.726a.312.312,0,1,0,0-.624Z" transform="translate(-10.881 -30.538)" fill="#53e3d2"/><path d="M472.468,276.6h-3.726l3.314-3.307a.328.328,0,0,0,0-.457.322.322,0,0,0-.457,0l-3.314,3.314v-3.732a.322.322,0,0,0-.322-.322.328.328,0,0,0-.322.322v3.732l-3.307-3.333a.322.322,0,0,0-.457,0,.328.328,0,0,0,0,.457l3.314,3.307H463.46a.328.328,0,0,0-.322.322.322.322,0,0,0,.322.322h3.732l-3.314,3.314a.328.328,0,0,0,0,.457.335.335,0,0,0,.457,0l3.307-3.314v3.726a.322.322,0,0,0,.643,0v-3.726L471.6,281a.335.335,0,0,0,.457,0,.328.328,0,0,0,0-.457l-3.314-3.314h3.726a.312.312,0,1,0,0-.624Z" transform="translate(-10.881 -30.538)" fill="#53e3d2"/><path d="M485.981,276.6h-3.726l3.314-3.307a.328.328,0,0,0,0-.457.322.322,0,0,0-.457,0l-3.314,3.314v-3.732a.322.322,0,0,0-.322-.322.328.328,0,0,0-.322.322v3.732l-3.307-3.333a.322.322,0,0,0-.457,0,.328.328,0,0,0,0,.457l3.314,3.307h-3.732a.328.328,0,0,0-.322.322.322.322,0,0,0,.322.322H480.7l-3.314,3.314a.328.328,0,0,0,0,.457.335.335,0,0,0,.457,0l3.307-3.314v3.726a.322.322,0,0,0,.643,0v-3.726L485.112,281a.335.335,0,0,0,.457,0,.328.328,0,0,0,0-.457l-3.314-3.314h3.726a.312.312,0,1,0,0-.624Z" transform="translate(-10.881 -30.538)" fill="#53e3d2"/><path d="M499.493,276.6h-3.726l3.314-3.307a.328.328,0,0,0,0-.457.322.322,0,0,0-.457,0l-3.314,3.314v-3.732a.322.322,0,0,0-.322-.322.328.328,0,0,0-.322.322v3.732l-3.307-3.333a.322.322,0,0,0-.457,0,.328.328,0,0,0,0,.457l3.314,3.307h-3.732a.328.328,0,0,0-.322.322.322.322,0,0,0,.322.322h3.732l-3.314,3.314a.328.328,0,0,0,0,.457.335.335,0,0,0,.457,0l3.307-3.314v3.726a.322.322,0,0,0,.643,0v-3.726L498.624,281a.335.335,0,0,0,.457,0,.328.328,0,0,0,0-.457l-3.314-3.314h3.726a.312.312,0,1,0,0-.624Z" transform="translate(-10.881 -30.538)" fill="#53e3d2"/><path d="M603.081,354.879a11.52,11.52,0,0,0-.29-2.31c-.579-2.175-1.885-4.807-4.034-5.463a33.871,33.871,0,0,1-6.4-2.7c-.386-6.9,1.2-13.956-.528-20.642-.643-2.445-1.705-4.787-1.988-7.29-.354-3.114.5-6.434-.746-9.3a9.183,9.183,0,0,0-5.437-4.7,28.973,28.973,0,0,0-7.252-1.287c-3.089-.251-13.088-1.435-16.575,1.326h0a3.642,3.642,0,0,0-.643.643h0a2.567,2.567,0,0,0-.206.335l-.032.051a2.616,2.616,0,0,0-.174.418h0a3.241,3.241,0,0,0-.109.483V305.6c.045.579.129,1.158.129,1.731a3.73,3.73,0,0,1-.077.849,5.947,5.947,0,0,1-1.068,2.085h0l-.116.167c-.071.1-.142.2-.206.3s-.116.18-.167.27-.1.148-.148.232a3.135,3.135,0,0,0-.167.328c0,.064-.071.122-.1.187a3.178,3.178,0,0,0-.193.54,3.591,3.591,0,0,0-.039,1.712,6.371,6.371,0,0,0,.882,2.027c.161.264.335.521.515.779l.45.611a13.881,13.881,0,0,0-.135,1.8,13.312,13.312,0,0,0,5.082,10.461,39.417,39.417,0,0,1-.082,8.167c-.058.566-.129,1.139-.206,1.705s-.135.939-.212,1.409a6.531,6.531,0,0,1-2.812-.212,13.261,13.261,0,0,0-1.287-.5c-1.872-.47-3.784,1.4-5.637.83a.755.755,0,0,1-.084.257,2.522,2.522,0,0,0-1.287-.38,4.694,4.694,0,0,1-2.793-1.6l-2.452-2.31a2.711,2.711,0,0,1-.425-.476,3.342,3.342,0,0,1-.3-.791,9.12,9.12,0,0,0-2.374-3.4,1.609,1.609,0,0,0-.7-.508,1.082,1.082,0,0,0-.322,0,2.825,2.825,0,0,0-.212-.257,6.048,6.048,0,0,0-.534-.54c-1.171-1.081-1.287-2.008-2.3-3.217a30.92,30.92,0,0,1-2.406-3.635c-.084-.676-.2-1.371-.341-2.072a26.662,26.662,0,0,0-1.409-4.7l-1.287-2.85-.148.148c-.933-1.39-1.93-2.149-2.825-1.969-1.5.309-2.239,3.217-2,7.02l.515,3.861a1.188,1.188,0,0,0,.071.29,7.125,7.125,0,0,0-.142,1.39c0,.54.5.939.766,1.422a4.022,4.022,0,0,1,.643,2.194c-.032.277-.116.54-.129.811a3.12,3.12,0,0,0,.6,1.673l3.217,5.4.643,1.132.039.051a2.748,2.748,0,0,0,.862.991,11.787,11.787,0,0,0,1.062,3.906c.109.244.232.476.36.708a22.759,22.759,0,0,0,3.037,3.944l1.531,1.718c1.512,1.686,3.024,3.378,4.665,4.935a6.247,6.247,0,0,0,2.085,1.461,2.361,2.361,0,0,0,2.342-.341q0,1.2,0,2.394a1.345,1.345,0,0,1,1.017,2.117,53.065,53.065,0,0,1-4.762,10.076,21.446,21.446,0,0,1,3.989,3.043,17.94,17.94,0,0,1,2.078,2.812c.058.476.1.946.129,1.416.476,7.67-2.49,15.282-5.148,22.591a17.6,17.6,0,0,0-1.538,6.4,12.552,12.552,0,0,0-1.441,1.036,9.542,9.542,0,0,1,.264,4.079,7.228,7.228,0,0,1-.534,2.574,18.115,18.115,0,0,1-.927,1.654c-1.667,2.941-2.033,6.434-2.368,9.793-.2,2.027.586,4.5-.335,6.319a25.848,25.848,0,0,0-3.217,9.9,9.923,9.923,0,0,1-.3,2.31c-.2.643-.553,1.19-.734,1.821a7.79,7.79,0,0,0-.129,2.574,24.631,24.631,0,0,1-1.351,9.079c-.8,2.3-1.692,4.755-1.062,7.117a10.031,10.031,0,0,0-2.722,5.978,9.428,9.428,0,0,1-.206,1.705,8.292,8.292,0,0,1-.772,1.641,14.362,14.362,0,0,0-1.75,7.721,21.478,21.478,0,0,0-3.468,9.06c-.573,3.211-.824,6.479-1.557,9.652-.978,4.2-2.747,8.436-3.095,12.734-2.085,1.332-2.986,3.912-3.385,6.351s-.463,5-1.486,7.252c-.528,1.171-1.287,2.22-1.789,3.417a15.7,15.7,0,0,0-.772,2.941,11.474,11.474,0,0,0-.2,4.826,7.275,7.275,0,0,1-1.885,1.435c.1-.4.187-.8.257-1.2-1.66,1.506-4.671.978-6,2.786a2.715,2.715,0,0,0,.643,3.726,5.148,5.148,0,0,0,1.332.573c3.217,1.029,6.525,2.065,9.832,1.519a2.935,2.935,0,0,0,1.113-.354,3.583,3.583,0,0,0,1.036-1.2c.5-.785.991-1.57,1.48-2.355a30.553,30.553,0,0,0,3.61.843c.122,1.03.212,2.059.257,3.089.643.129,1.506.167,1.808-.431a1.564,1.564,0,0,0,.109-.714c0-.457.064-1.062.1-1.679h.129a12.224,12.224,0,0,0,5.694-1.152c-.688-5.7,1.583-11.273,3.552-16.665,2.078-5.675,3.861-11.453,5.656-17.231,1.287-4.067,2.709-8,3.97-12.077q2.381-7.721,4.781-15.443c.695-2.265,1.4-4.5,2.194-6.756a105.257,105.257,0,0,1,5.965-13.274c.643-1.216,1.287-2.419,1.815-3.68.643-1.538,1.1-3.146,1.615-4.736a73.345,73.345,0,0,1,4.041-9.51c.045-.084.077-.161.122-.238.521,2.13,1.042,4.292,1.39,6.434a24.45,24.45,0,0,1,.109,7.953,26.226,26.226,0,0,0-.824,5.392c.1,2.516,1.441,4.8,2.1,7.226a27.5,27.5,0,0,1,.721,5.534c.18,2.9,1.75,6.145.643,8.828-3.442,8.5-1.776,18.1-3.738,27.025-1.01,4.581-4.105,8.886-3.861,13.57q.257,4.987.875,9.948a9.468,9.468,0,0,0,.8,3.018,11.083,11.083,0,0,0,.881,1.441c-.283.109-.521.4-.727,1.01a3.97,3.97,0,0,0,1.428,4.5,6.253,6.253,0,0,0,1.86.643,9.793,9.793,0,0,0,2.69.373,6.282,6.282,0,0,0,.843-.1,30.666,30.666,0,0,0,3.044,1.094,6.6,6.6,0,0,0,.084.791.985.985,0,0,0,.335.727,1,1,0,0,0,.515.09h3.494v-.875a2.876,2.876,0,0,0,2.22-.721,3.435,3.435,0,0,0,.643-1.338q1.428-4.845,2.838-9.7a31,31,0,0,0,1.383-11.067c-1.242-11.859,1.486-23.756.6-35.647a85.392,85.392,0,0,1,1.094-21.388c.29-1.6.643-3.217.772-4.807.283-3-.064-6.029.148-9.008.071-1.042.212-2.078.341-3.114a149.564,149.564,0,0,0,1.383-19.4,61.139,61.139,0,0,0-.4-6.434,3.674,3.674,0,0,0,1.757-1.03,4.376,4.376,0,0,0,.418-2.748c0-2.278.959-4.427,1.731-6.576a78.137,78.137,0,0,0,2.432-9.047,31.587,31.587,0,0,0,1.081-7.56q0-.386-.039-.772a1.993,1.993,0,0,0,.592-.643,3.739,3.739,0,0,0,.309-1.19c.232-1.641.47-3.288.7-4.935q.257-1.769.508-3.533l2.046-14.278c.174-1.242.354-2.477.528-3.713l.534-3.693c.058-.438.122-.875.167-1.287C604.748,361.365,603.249,357.865,603.081,354.879Zm-17.071,53.457a11.76,11.76,0,0,1-1.287-5.592h-.071a2.87,2.87,0,0,0-.084-1.815c-.2-.47-.547-.869-.759-1.338a4.9,4.9,0,0,1-.347-1.8,49.114,49.114,0,0,1,.92-11.672c.084-.45.174-.907.257-1.358a3.362,3.362,0,0,0,.734-.573,5.217,5.217,0,0,0,.83-1.287c.727-1.461,1.39-2.947,2-4.459.2-.489.489-1.055.984-1.178-.1,3.764.283,7.606-1.248,11A6.962,6.962,0,0,0,587.3,390c-.142.959.257,1.93.116,2.883-.071.5-.283.952-.367,1.441a1.409,1.409,0,0,0,.373,1.364,1.126,1.126,0,0,0,.277.142c-.039.257-.071.521-.1.772-.052.528-.077,1.023-.109,1.332a41.5,41.5,0,0,0-.174,4.736c0,1.705.064,3.41.039,5.148a3.494,3.494,0,0,1-.245,1.461,2.535,2.535,0,0,1-.489.643,16.724,16.724,0,0,0-.611-1.589Z" transform="translate(-10.881 -30.538)" fill="url(#b)"/><ellipse cx="3.629" cy="10.276" rx="3.629" ry="10.276" transform="matrix(0.98, -0.201, 0.201, 0.98, 516.661, 283.734)" fill="#fbbebe"/><path d="M565.2,540.493a3.9,3.9,0,0,0,1.428,4.459,6.358,6.358,0,0,0,1.847.643,9.742,9.742,0,0,0,2.683.367c1.113-.052,2.181-.489,3.294-.643a.515.515,0,0,1,.38.051.547.547,0,0,1,.141.45,17.012,17.012,0,0,0,.142,1.892.972.972,0,0,0,.335.727,1,1,0,0,0,.515.09h3.487a34.009,34.009,0,0,0-1-9.1,2.033,2.033,0,0,0-.257-.643,2.13,2.13,0,0,0-1.113-.643,6.222,6.222,0,0,0-2.7-.47,7.9,7.9,0,0,0-3.024,1.48,4.607,4.607,0,0,1-3.43.83C566.772,539.676,565.8,538.7,565.2,540.493Z" transform="translate(-10.881 -30.538)" fill="#3f3d56"/><path d="M514,537.669a9.65,9.65,0,0,1-3.52,2.394l-.592.283a.411.411,0,0,0-.2.161.347.347,0,0,0,.064.29,4.163,4.163,0,0,0,4.723,1.718,2.5,2.5,0,0,0,1.036-.54,3.4,3.4,0,0,0,.8-2.072,4.241,4.241,0,0,0-.1-2.374C515.315,535.513,514.987,536.427,514,537.669Z" transform="translate(-10.881 -30.538)" fill="#fbbebe"/><path d="M527.367,545.6a1.563,1.563,0,0,1-.109.714c-.3.592-1.145.56-1.8.431a43.314,43.314,0,0,0-.791-6.5c-1.248-.058-2.149,1.126-2.818,2.188l-1.724,2.735a3.565,3.565,0,0,1-1.03,1.2,3.049,3.049,0,0,1-1.113.354c-3.294.547-6.621-.489-9.8-1.519a5.191,5.191,0,0,1-1.332-.566,2.722,2.722,0,0,1-.643-3.719c1.332-1.8,4.324-1.287,5.984-2.78a14.978,14.978,0,0,1-.849,3.069c2.22-.335,3.713-2.368,5.5-3.726a3.384,3.384,0,0,1,1.57-.746,3.455,3.455,0,0,1,1.287.135,15.1,15.1,0,0,1,5.662,2.786,6.1,6.1,0,0,1,2.027,2.11C527.7,542.745,527.367,544.547,527.367,545.6Z" transform="translate(-10.881 -30.538)" fill="#3f3d56"/><circle cx="13.294" cy="13.294" r="13.294" transform="translate(547.455 276.173)" fill="#fbbebe"/><path d="M597.818,398.492a31.526,31.526,0,0,1-1.075,7.522,77.622,77.622,0,0,1-2.432,9.008c-.766,2.143-1.724,4.292-1.718,6.563,0,.946.154,1.995-.425,2.741a4,4,0,0,1-1.879,1.075,2.348,2.348,0,0,0-1.583,1.409,9.943,9.943,0,0,1-1.338-2.947q-1.731-5.3-3.217-10.662a1.383,1.383,0,0,1,.09-1.287,1.6,1.6,0,0,1,.56-.315,5.791,5.791,0,0,0,1.782-1.145,2.605,2.605,0,0,0,.592-.766,3.468,3.468,0,0,0,.251-1.454c0-1.705,0-3.4-.045-5.109a42.691,42.691,0,0,1,.18-4.716c0-.309.058-.8.109-1.332.1-1.01.29-2.181.836-2.574.817-.547,3.262.187,4.189.315,1.6.219,3.217.476,4.774.779A12.746,12.746,0,0,1,597.818,398.492Z" transform="translate(-10.881 -30.538)" fill="#3f3d56"/><path d="M544.142,334.887c-.515,1.03-1.75,1.525-2.7,2.175l-3.262,2.239a2.175,2.175,0,0,1-1.615.553,2.123,2.123,0,0,1-1.2-1.126.224.224,0,0,0,0-.052l-.676-1.132-3.217-5.392a3.068,3.068,0,0,1-.6-1.66c0-.277.1-.534.122-.811a3.893,3.893,0,0,0-.643-2.188c-.257-.483-.772-.882-.759-1.422a5.146,5.146,0,0,1,.36-2.078,4.208,4.208,0,0,1,1.409-1.506c.3-.219.611-.425.933-.643a1.839,1.839,0,0,1,.56-.257c.534-.109,1.062.335,1.6.354,2.323,1.557,3.217,4.5,5.045,6.627,1.029,1.21,1.132,2.136,2.3,3.217.187.167.367.347.54.534a3.738,3.738,0,0,1,.579.836C543.125,333.71,544.406,334.359,544.142,334.887Z" transform="translate(-10.881 -30.538)" fill="#3f3d56"/><path d="M566.958,333.3a11.979,11.979,0,0,1,1.428,6.479,4.047,4.047,0,0,1-.56,1.705c-.927,1.422-2.87,1.679-4.562,1.763a2.69,2.69,0,0,0-1.982.643,1.8,1.8,0,0,0,.122,2.2,4.967,4.967,0,0,0,1.969,1.287c2.677,1.178,5.566,2.149,8.474,1.879,1.351-.129,2.664-.521,4.009-.721a42.093,42.093,0,0,1,4.414-.244c1.75-.064,3.494-.238,5.238-.412l4.62-.457a1.029,1.029,0,0,0,.688-.251c.341-.4-.1-.985-.521-1.287-2.452-1.815-5.572-3.063-6.969-5.791a34.078,34.078,0,0,1-1.319-4.208,35.359,35.359,0,0,1-1.531-4.06,26.9,26.9,0,0,1-.212-3.745,5.026,5.026,0,0,0-1.287-3.423,5.365,5.365,0,0,0-3.5-1.126c-3.076-.135-6.351.6-8.532,2.767-.586.586-1.087,1.287-1.692,1.815s-1.428.682-1.029,1.377,1.184,1.126,1.609,1.737A14.8,14.8,0,0,1,566.958,333.3Z" transform="translate(-10.881 -30.538)" fill="#fbbebe"/><path d="M593.166,352.022a73.106,73.106,0,0,1-3.938,14.5,54.592,54.592,0,0,0-2.316,6.5c-.5,1.995-.4,4.131-.856,6.132-.566,2.49-1.132,4.987-1.589,7.5a49.148,49.148,0,0,0-.914,11.646,4.87,4.87,0,0,0,.347,1.8c.212.463.553.862.753,1.338a3.217,3.217,0,0,1-.18,2.574,7.452,7.452,0,0,1-1.326,2.008c-6,1.789-12.412,1.2-18.66,1.583-5.759.347-11.582,1.531-17.257.547-.643-2.574.431-5.27,1.351-7.779,2.67-7.29,5.624-14.883,5.148-22.521a23.334,23.334,0,0,0-.3-2.657c-.933-5.411.084-11.016,1.711-16.26a27.905,27.905,0,0,0,.734-10.154,18.538,18.538,0,0,1-.045-3.327,5.849,5.849,0,0,1,1.21-3.108c0-.045.058-.09.09-.135a.883.883,0,0,1,.483,0h0a.412.412,0,0,0,.322,0l.071-.045a.161.161,0,0,1,.187,0c.148.09.232.4.553.457a12.822,12.822,0,0,0,1.435.135,7.72,7.72,0,0,1,1.712.245h.077a5.025,5.025,0,0,0,2.5-.212,6.637,6.637,0,0,0,1.531-.592c.142-.154,1.03-.3,1.21-.405.586-.354.457-2.014.579-2.7a7.414,7.414,0,0,1,.483-1.995,3.4,3.4,0,0,1,2.754-1.6,14.664,14.664,0,0,1,3.3.3c2.4.341,4.858.283,7.213.836,1.184.277,2.477.695,3.565.154.3.071.341.328.341.643a4.122,4.122,0,0,1-.18.882c-.412,1.776.984,3.41,2.271,4.7a7.284,7.284,0,0,0,1.9,1.512c.643.3,1.287.418,1.93.74a3.513,3.513,0,0,1,1.287,1.178,4.916,4.916,0,0,1,.734,1.872,11.2,11.2,0,0,1-.212,3.726Z" transform="translate(-10.881 -30.538)" fill="#3f3d56"/><path d="M593.166,352.022a73.106,73.106,0,0,1-3.938,14.5,54.592,54.592,0,0,0-2.316,6.5c-.5,1.995-.4,4.131-.856,6.132-.566,2.49-1.132,4.987-1.589,7.5-.135.077-.277.148-.418.212a9.874,9.874,0,0,1-2.522.811,15.442,15.442,0,0,1-4.71-.154l-9.182-1.229c-3.668-.5-7.573-1.094-10.3-3.578a21.967,21.967,0,0,1-3.59-4.9,23.347,23.347,0,0,0-.3-2.657c-.933-5.411.084-11.016,1.712-16.26a27.906,27.906,0,0,0,.734-10.154,18.544,18.544,0,0,1-.045-3.327,5.849,5.849,0,0,1,1.21-3.108,4.589,4.589,0,0,1,.573-.129h0a2.859,2.859,0,0,1,.393-.051h.187a2.807,2.807,0,0,1,.643.077,11.642,11.642,0,0,1,1.287.5h.077a4.928,4.928,0,0,0,1.711.245c.849,0,1.724-.135,2.574-.193a4.749,4.749,0,0,1,3.05.547,18.284,18.284,0,0,1,1.7,1.551,7.3,7.3,0,0,0,2.143,1.165,22.771,22.771,0,0,0,17.129-.36,3.351,3.351,0,0,1,1.718-.438,3.217,3.217,0,0,1,1.235.528c.386.225.766.444,1.158.643a4.916,4.916,0,0,1,.734,1.872A11.2,11.2,0,0,1,593.166,352.022Z" transform="translate(-10.881 -30.538)" opacity="0.1"/><path d="M598.77,347.762a34.341,34.341,0,0,1-7.335-3.217,3.288,3.288,0,0,0-1.235-.528,3.454,3.454,0,0,0-1.724.438,22.759,22.759,0,0,1-17.122.36,7.445,7.445,0,0,1-2.143-1.165,19.232,19.232,0,0,0-1.7-1.551c-2.117-1.371-5.045.238-7.413-.643a13.121,13.121,0,0,0-1.287-.5c-1.872-.47-3.777,1.4-5.617.83a31.3,31.3,0,0,0-1.512,5.74,62.568,62.568,0,0,0-.418,6.769c0,1.358-.064,2.715,0,4.073a1.336,1.336,0,0,1,1.017,2.111,52.746,52.746,0,0,1-4.749,10.044,21.824,21.824,0,0,1,3.977,3.037c2.252,2.381,3.359,5.72,5.791,7.921,2.741,2.477,6.647,3.082,10.3,3.571l9.182,1.229a15.694,15.694,0,0,0,4.716.161,9.927,9.927,0,0,0,2.516-.817,4.5,4.5,0,0,0,1.4-.927,5.147,5.147,0,0,0,.83-1.287c.727-1.454,1.39-2.941,2-4.446.212-.534.534-1.158,1.113-1.2,3.41-3.076,6.627-6.229,10.038-9.3a22.245,22.245,0,0,0,3.661-3.861c1.692-2.5.154-6.048,0-9.073a11.455,11.455,0,0,0-.29-2.3C602.213,351.038,600.913,348.412,598.77,347.762Z" transform="translate(-10.881 -30.538)" fill="#53e3d2"/><path d="M544.142,334.887c-.515,1.03-1.75,1.525-2.7,2.175l-3.262,2.239a2.175,2.175,0,0,1-1.615.553,2.123,2.123,0,0,1-1.2-1.126v-.463a4.316,4.316,0,0,1,.206-1.538,4.793,4.793,0,0,1,1.441-1.853,11.8,11.8,0,0,1,4.227-2.574,1.448,1.448,0,0,1,.772-.077,1.017,1.017,0,0,1,.283.122,3.733,3.733,0,0,1,.579.836C543.125,333.71,544.406,334.359,544.142,334.887Z" transform="translate(-10.881 -30.538)" opacity="0.1"/><path d="M551.824,341.669a4.687,4.687,0,0,1-2.786-1.6l-2.439-2.265a2.278,2.278,0,0,1-.425-.476,3.339,3.339,0,0,1-.3-.791,9.079,9.079,0,0,0-2.368-3.4,1.544,1.544,0,0,0-.7-.5,1.409,1.409,0,0,0-.779.077,11.768,11.768,0,0,0-4.227,2.574,4.806,4.806,0,0,0-1.441,1.853,4.277,4.277,0,0,0-.206,1.538,11.815,11.815,0,0,0,1.12,4.916c.109.238.232.476.36.708a22.284,22.284,0,0,0,3.024,3.931l1.531,1.712c1.506,1.686,3.011,3.372,4.646,4.922a6.137,6.137,0,0,0,2.085,1.454,2.329,2.329,0,0,0,2.394-.386,3.461,3.461,0,0,0,.682-1.223,24.065,24.065,0,0,0,1.988-8.024,30.314,30.314,0,0,0-.142-3.327C553.748,342.2,552.918,341.74,551.824,341.669Z" transform="translate(-10.881 -30.538)" fill="#53e3d2"/><path d="M590.817,431.751A148.674,148.674,0,0,1,589.44,451.1c-.129,1.036-.27,2.072-.341,3.108-.212,3,.135,6.023-.148,9.008-.148,1.615-.483,3.217-.766,4.794a85.238,85.238,0,0,0-1.094,21.33c.888,11.859-1.834,23.724-.6,35.55a28.74,28.74,0,0,1-.38,6.878,29.148,29.148,0,0,1-1,4.157q-1.409,4.832-2.831,9.652a3.346,3.346,0,0,1-.643,1.338,3.05,3.05,0,0,1-2.413.714c-3.713-.116-7.207-1.718-10.578-3.282a3.685,3.685,0,0,1-1.062-.643c-.7-.727-.643-1.872-.952-2.831a26.939,26.939,0,0,0-1.622-2.844,9.286,9.286,0,0,1-.7-2.928q-.644-4.942-.875-9.922c-.245-4.671,2.844-8.97,3.861-13.512,1.93-8.931.3-18.505,3.726-26.98,1.081-2.677-.489-5.92-.643-8.8a27.9,27.9,0,0,0-.721-5.521c-.643-2.419-2-4.7-2.1-7.207a26.477,26.477,0,0,1,.817-5.373,24.148,24.148,0,0,0-.109-7.934c-.341-2.162-.862-4.324-1.383-6.434l-.116.238a72.708,72.708,0,0,0-4.034,9.491c-.515,1.576-.965,3.185-1.609,4.716-.528,1.287-1.177,2.464-1.815,3.674a105.523,105.523,0,0,0-5.952,13.223c-.8,2.226-1.5,4.5-2.194,6.737L546.4,496.939c-1.287,4.06-2.7,7.985-3.957,12.039-1.782,5.791-3.565,11.531-5.637,17.193-1.93,5.373-4.227,10.939-3.539,16.614a12.225,12.225,0,0,1-5.682,1.152,33.266,33.266,0,0,1-9.652-2.342,7.5,7.5,0,0,1-3.333-1.982c-1.428-1.744-1.075-4.3-.643-6.518a15.751,15.751,0,0,1,.772-2.934c.489-1.184,1.287-2.233,1.789-3.4,1.01-2.246,1.075-4.787,1.473-7.226s1.287-5.012,3.372-6.338c.354-4.285,2.117-8.513,3.089-12.7.734-3.172.978-6.434,1.557-9.652a21.2,21.2,0,0,1,3.455-9.04,14.329,14.329,0,0,1,1.75-7.721,8.443,8.443,0,0,0,.766-1.641,9.43,9.43,0,0,0,.206-1.7,10.044,10.044,0,0,1,2.715-5.965c-.643-2.349.251-4.8,1.055-7.078a24.593,24.593,0,0,0,1.351-9.053,7.934,7.934,0,0,1,.122-2.574c.18-.643.534-1.19.74-1.808a10.288,10.288,0,0,0,.29-2.31,26.718,26.718,0,0,1,3.217-9.87c.927-1.815.141-4.279.335-6.3.335-3.359.7-6.833,2.368-9.761.309-.553.643-1.081.92-1.654a7.161,7.161,0,0,0,.534-2.574,9.478,9.478,0,0,0-.264-4.067c3.442-2.863,8.14-3.668,12.618-3.861s9.008.212,13.39-.74c1.287-.29,2.574-.688,3.931-.882,3.082-.45,6.209.251,9.253.946a11.022,11.022,0,0,0,1.287,5.579,59.885,59.885,0,0,1,4.768,22.984Z" transform="translate(-10.881 -30.538)" fill="#33313f"/><path d="M575.664,433.225l-7.393,16.627c-.341-2.162-.862-4.324-1.383-6.434l-.116.238v-.347l4.028-8.86Z" transform="translate(-10.881 -30.538)" opacity="0.1"/><path d="M597.818,398.492a2.78,2.78,0,0,1-1.467.547,7.136,7.136,0,0,1-2.407-.328l-5.791-1.448a2.843,2.843,0,0,1-.528-.187c.1-1.01.29-2.181.836-2.574.817-.547,3.262.187,4.189.315,1.6.219,3.217.476,4.774.779A12.743,12.743,0,0,1,597.818,398.492Z" transform="translate(-10.881 -30.538)" opacity="0.1"/><path d="M602.714,360.207c.122.534.3,1.062.4,1.6a12.226,12.226,0,0,1-.135,3.983l-.528,3.68-.528,3.7-2.04,14.239-.5,3.526-.708,4.922a3.538,3.538,0,0,1-.309,1.184,2.464,2.464,0,0,1-2.014,1.19,7.3,7.3,0,0,1-2.406-.328l-5.791-1.454a1.814,1.814,0,0,1-.708-.29,1.4,1.4,0,0,1-.373-1.358c.084-.489.3-.946.367-1.435.142-.952-.257-1.93-.116-2.876a7.155,7.155,0,0,1,.643-1.731c1.93-4.266.811-9.246,1.467-13.879a21.041,21.041,0,0,1,4.465-9.935,28.518,28.518,0,0,1,4.929-4.839,9.92,9.92,0,0,1,2.773-1.93C602.766,357.935,602.521,359.4,602.714,360.207Z" transform="translate(-10.881 -30.538)" fill="#53e3d2"/><path d="M558.889,304.78c-.425,1.351.238,2.838-.064,4.215-.328,1.519-1.757,2.574-2.162,4.1-.643,2.323,1.326,4.44,2.767,6.37,5.341,7.168,4.639,17.09,2.812,25.834a133.4,133.4,0,0,1-6.081,20.59,15.778,15.778,0,0,1-3.275,5.746c2.96-.849,6.106-1.705,9.073-.882,3.758,1.042,7,4.691,10.81,3.861,2.291-.508,3.9-2.542,5.958-3.668,3.861-2.078,8.513-.772,12.817-.1a5.032,5.032,0,0,0,2.8-.142,4.652,4.652,0,0,0,1.7-1.564,15.867,15.867,0,0,0,3.307-8.558,10.977,10.977,0,0,0-3.159-8.448,18.072,18.072,0,0,1-2.709-2.574,7.992,7.992,0,0,1-1.062-3.9c-.508-7.078,1.216-14.3-.56-21.15-.643-2.439-1.692-4.774-1.975-7.271-.354-3.108.489-6.434-.746-9.278a9.1,9.1,0,0,0-5.424-4.684,29.716,29.716,0,0,0-7.232-1.287C572.955,301.692,560.363,300.18,558.889,304.78Z" transform="translate(-10.881 -30.538)" fill="#33313f"/><g opacity="0.1"><path d="M562.242,345.3a133.127,133.127,0,0,1-6.048,20.507c.444-.882.817-1.808,1.171-2.728a132.685,132.685,0,0,0,6.081-20.59c1.834-8.751,2.535-18.66-2.805-25.834-1.287-1.712-2.941-3.565-2.883-5.572a6.856,6.856,0,0,0-1.094,2.02c-.643,2.323,1.326,4.44,2.767,6.37C564.771,326.632,564.069,336.554,562.242,345.3Z" transform="translate(-10.881 -30.538)"/><path d="M558.9,308.345a6.261,6.261,0,0,0,1.133-2.168,11.023,11.023,0,0,0-.077-2.87,3.094,3.094,0,0,0-1.068,1.473C558.51,305.919,558.947,307.155,558.9,308.345Z" transform="translate(-10.881 -30.538)"/><path d="M597.252,366.306a4.632,4.632,0,0,1-1.7,1.557,4.915,4.915,0,0,1-2.8.142c-4.3-.643-9.008-1.969-12.817.109-2.065,1.12-3.668,3.153-5.965,3.668-3.8.849-7.046-2.8-10.8-3.861-2.664-.74-5.469-.129-8.152.643a11.242,11.242,0,0,1-2.13,3.076c2.96-.849,6.106-1.705,9.073-.881,3.758,1.042,7,4.691,10.81,3.861,2.291-.508,3.9-2.542,5.958-3.668,3.861-2.078,8.513-.772,12.817-.1a5.032,5.032,0,0,0,2.8-.142,4.652,4.652,0,0,0,1.7-1.564,17.3,17.3,0,0,0,2.664-5.1A18.719,18.719,0,0,1,597.252,366.306Z" transform="translate(-10.881 -30.538)"/></g></g></g></svg>