<svg xmlns="http://www.w3.org/2000/svg" xmlns:xlink="http://www.w3.org/1999/xlink" width="820" height="476" viewBox="0 0 820 476"><defs><clipPath id="a"><rect width="820" height="476" transform="translate(960 281)" fill="#fff" stroke="#707070" stroke-width="1"/></clipPath></defs><g transform="translate(-960 -281)" clip-path="url(#a)"><g transform="translate(960 317.851)"><path d="M864.612,538.313c5.689,5.16-231.344,5.16-225.637,0C633.282,533.153,870.318,533.153,864.612,538.313Z" transform="translate(-44.713 -139.885)" fill="#e6e6e6"/><path d="M785.931,387.7c12.545,17.733,15.859,118.661,16.6,151.013.019.729.038,1.42.047,2.073h31.755c.388-.691.748-1.373,1.089-2.073,18.822-37.152,8.379-81.7,7.83-83.952,1.43,7.082-5.037,27.608-12.346,47.491C826.446,441.12,788.319,390.789,785.931,387.7Z" transform="translate(-44.713 -139.885)" fill="#e6e6e6"/><path d="M189.463,190.431c-24.86,35.142-31.427,235.151-32.891,299.262-.037,1.445-.075,2.814-.094,4.109H93.549c-.769-1.37-1.482-2.721-2.158-4.109-37.3-73.625-16.605-161.9-15.517-166.368-2.833,14.034,9.982,54.712,24.466,94.113C109.179,296.289,184.735,196.548,189.463,190.431Z" transform="translate(-44.713 -139.885)" fill="#e6e6e6"/><path d="M481.8,491.732c11.016,12.708-447.938,12.708-436.889,0C33.894,479.024,492.848,479.024,481.8,491.732Z" transform="translate(-44.713 -139.885)" fill="#e6e6e6"/><path d="M718.8,484.614c-1.764,0-1.8,5.494,0,5.494h65.9c.772.025,1.408-1.185,1.421-2.7.015-1.549-.633-2.82-1.421-2.792Z" transform="translate(-44.713 -139.885)" fill="#3f3d56"/><path d="M739.607,464.152c-2.29,0-2.3,5.494,0,5.494h24.259c.994.025,1.812-1.185,1.828-2.7.019-1.549-.815-2.82-1.828-2.792Z" transform="translate(-44.713 -139.885)" fill="#53e3d2"/><path d="M718.8,505.833c-1.764,0-1.8,5.494,0,5.494h65.9c.772.025,1.408-1.185,1.421-2.7.015-1.549-.633-2.82-1.421-2.792Z" transform="translate(-44.713 -139.885)" fill="#3f3d56"/><path d="M798.777,436.964H704.8a3.791,3.791,0,0,0-3.789,3.789v93.974a3.791,3.791,0,0,0,3.789,3.789h93.974a3.791,3.791,0,0,0,3.789-3.789V440.753A3.791,3.791,0,0,0,798.777,436.964Zm2.274,97.763A2.28,2.28,0,0,1,798.777,537H704.8a2.28,2.28,0,0,1-2.273-2.274V440.753a2.28,2.28,0,0,1,2.274-2.274h93.974a2.28,2.28,0,0,1,2.274,2.274Z" transform="translate(-44.713 -139.885)" fill="#3f3d56"/><path d="M669,362.37l7.624-3.812L670.267,341.4l-1.674-8.651a6.541,6.541,0,0,0-10.678-3.723h0a6.541,6.541,0,0,0-.851,9.052l6.215,7.769Z" transform="translate(-44.713 -139.885)" fill="#a0616a"/><path d="M666.453,360.464l1.406,4.4,6.31,19.77a10.572,10.572,0,0,0,19.142,2.223l20.456-35.06a11.023,11.023,0,0,0,.834-1.715,10.794,10.794,0,0,0-19.776-8.6l-12.489,26.606-5.716-12.706Z" transform="translate(-44.713 -139.885)" fill="#e6e6e6"/><path d="M669.4,488.172l13.977,1.271L691,434.171c25.13,4.228,48.838,5.582,69.344.468a12.946,12.946,0,0,0,9.2-16.627c-2.454-7.325-6.778-15.174-11.84-23.23l-33.671,12.071-1.271,5.082-35.915-4.546a13.182,13.182,0,0,0-14.828,12.571Z" transform="translate(-44.713 -139.885)" fill="#2f2e41"/><path d="M654.176,498.881h0a5,5,0,0,1,2.237-4.9l14.347-7.041,10.817,1.366,2.555,9.158a4.874,4.874,0,0,1-4.264,5.639l-20.184.044a5,5,0,0,1-5.508-4.264Z" transform="translate(-44.713 -139.885)" fill="#2f2e41"/><path d="M665.866,481.1l13.977,1.271,7.624-55.272c25.13,4.228,48.838,5.582,69.344.468a12.946,12.946,0,0,0,9.2-16.627c-2.454-7.325-6.778-15.174-11.84-23.23L720.5,399.785l-1.271,5.082-35.915-4.546a13.182,13.182,0,0,0-14.828,12.571Z" transform="translate(-44.713 -139.885)" fill="#2f2e41"/><path d="M650.646,491.814h0a5,5,0,0,1,2.237-4.9l14.347-7.041,10.817,1.366,2.555,9.158a4.874,4.874,0,0,1-4.264,5.639l-20.184.044a5,5,0,0,1-5.508-4.264Z" transform="translate(-44.713 -139.885)" fill="#2f2e41"/><circle cx="17.153" cy="17.153" r="17.153" transform="translate(629.412 155.71)" fill="#a0616a"/><path d="M647.2,207.8l19.694-2.541-7.624-23.506H640.212Z" fill="#a0616a"/><path d="M686.554,371.392a26.908,26.908,0,0,0,4.287,7.67,36.585,36.585,0,0,0,9.316,8.128c.617.4,1.257.783,1.92,1.16l3.784,3.224,13.369,11.386,36.849-13.975c-8.128-18.061-18.267-32.339-29.887-43.839a20.961,20.961,0,0,0-22.4-8.528l-13.786,3.447C685.1,351.638,683.279,362.281,686.554,371.392Z" transform="translate(-44.713 -139.885)" fill="#e6e6e6"/><path d="M656.538,321.965a1.319,1.319,0,0,0-1.651-.162c-.337.356-11.373,6.9-10.681,7.544a1.322,1.322,0,0,0,.384,1.077l25.647,25.536a1.324,1.324,0,0,0,.949.387c.516.659,8.922-8.92,9.346-9.1a1.33,1.33,0,0,0-.027-1.871Z" transform="translate(-44.713 -139.885)" fill="#3f3d56"/><path d="M646.789,329.074l1.044-.665a1,1,0,0,0,1.431,1.306l6.754-4.643a1,1,0,0,0-.263-1.767c.267-.091.7-.634.99-.292l22.72,22.328c.809.394-8.255,8.249-8.26,8.558-.677.754-23.982-24.245-24.478-24.263a.363.363,0,0,1,.062-.561Z" transform="translate(-44.713 -139.885)" fill="#fff"/><path d="M628.3,200.525l-6.97,6.571L604.75,190.717l8.414-5.477Z" fill="#53e3d2"/><path d="M650.107,334.644c.4-.29-1.373-1.579-1.45-1.791a.247.247,0,0,0-.341,0c-.4.29,1.373,1.579,1.45,1.791A.247.247,0,0,0,650.107,334.644Z" transform="translate(-44.713 -139.885)" fill="#e6e6e6"/><path d="M652.55,336.745c-.218-.081-1.5-1.842-1.791-1.45-.4.29,1.373,1.579,1.45,1.791C652.426,337.31,652.774,336.964,652.55,336.745Z" transform="translate(-44.713 -139.885)" fill="#e6e6e6"/><path d="M671.223,346.051a1.629,1.629,0,0,0,3.256,0A1.629,1.629,0,0,0,671.223,346.051Z" transform="translate(-44.713 -139.885)" fill="#53e3d2"/><path d="M690.841,379.062a36.586,36.586,0,0,0,9.316,8.128c.617.4,1.257.783,1.92,1.16l3.784,3.224c7.51-9.871,7.087-39.861,7.087-39.861l-11.431,1.143Z" transform="translate(-44.713 -139.885)" opacity="0.2"/><path d="M668.408,371.2l7.624-3.812-6.353-17.153L668,341.581a6.541,6.541,0,0,0-10.678-3.723h0a6.541,6.541,0,0,0-.851,9.052l6.215,7.769Z" transform="translate(-44.713 -139.885)" fill="#a0616a"/><path d="M676.031,364.208l-10.165,5.082,7.714,24.171a10.574,10.574,0,0,0,7.624,7.072h0a10.574,10.574,0,0,0,11.516-4.846l20.456-35.062a10.794,10.794,0,0,0-3.48-14.672h0a10.794,10.794,0,0,0-15.462,4.357l-12.485,26.6Z" transform="translate(-44.713 -139.885)" fill="#e6e6e6"/><path d="M684.822,306.066a16.822,16.822,0,0,1-4.672,2.757,6.248,6.248,0,0,1-5.259-.378,6,6,0,0,1-2.454-5.594,12.055,12.055,0,0,1,2.483-5.842,25.009,25.009,0,0,1,40.449-.224,14.034,14.034,0,0,1,3.016,7.417c.245,4.765-3.016,9.214-2.667,13.973.295,4.025,3.184,7.473,6.606,9.613s7.376,3.225,11.2,4.51,7.695,2.871,10.526,5.747,4.393,7.339,2.839,11.063c-1.277,3.061-4.312,5.007-7.355,6.325a35.867,35.867,0,0,1-25.725.966c-3.1-1.073-6.478-3.221-6.525-6.5a14.9,14.9,0,0,1,1-4.127c.384-1.37.456-3-.508-4.049-1.2-1.3-3.405-1-4.834.036s-2.358,2.6-3.537,3.916a10.448,10.448,0,0,1-8.948,3.614c-3.317-.469-6.314-3.295-6.451-6.641-.236-5.749,6.967-9.349,7.75-15.049.523-3.807-1.956-7.29-4.1-10.477s-4.145-7.179-2.642-10.716" transform="translate(-44.713 -139.885)" fill="#2f2e41"/><path d="M445.794,489.334H162.765a5.247,5.247,0,0,1-5.241-5.241V242.066a5.247,5.247,0,0,1,5.241-5.241H445.794a5.247,5.247,0,0,1,5.241,5.241V484.093a5.247,5.247,0,0,1-5.241,5.241ZM162.765,238.921a3.148,3.148,0,0,0-3.145,3.145V484.093a3.148,3.148,0,0,0,3.145,3.145H445.794a3.148,3.148,0,0,0,3.145-3.145V242.066a3.148,3.148,0,0,0-3.145-3.145Z" transform="translate(-44.713 -139.885)" fill="#3f3d56"/><circle cx="21.35" cy="21.35" r="21.35" transform="translate(140.679 285.06)" fill="#e6e6e6"/><path d="M256.05,432.062a3.558,3.558,0,1,0,0,7.117H423.8a3.558,3.558,0,1,0,0-7.117Z" transform="translate(-44.713 -139.885)" fill="#e6e6e6"/><path d="M256.05,453.412a3.558,3.558,0,1,0,0,7.117h72.184a3.558,3.558,0,0,0,0-7.117Z" transform="translate(-44.713 -139.885)" fill="#e6e6e6"/><path d="M513.038,404.918H230.009a5.247,5.247,0,0,1-5.241-5.241V275.469a5.247,5.247,0,0,1,5.241-5.241H513.038a5.247,5.247,0,0,1,5.241,5.241V399.676a5.247,5.247,0,0,1-5.241,5.241Z" transform="translate(-44.713 -139.885)" fill="#53e3d2"/><path d="M287.648,313.521a3.558,3.558,0,1,0,0,7.117H455.4a3.558,3.558,0,0,0,0-7.117Z" transform="translate(-44.713 -139.885)" fill="#fff"/><path d="M287.648,334.14a3.558,3.558,0,1,0,0,7.117H455.4a3.558,3.558,0,0,0,0-7.117Z" transform="translate(-44.713 -139.885)" fill="#fff"/><path d="M287.648,354.508a3.558,3.558,0,0,0,0,7.117h72.184a3.558,3.558,0,0,0,0-7.117Z" transform="translate(-44.713 -139.885)" fill="#fff"/><circle cx="21.35" cy="21.35" r="21.35" transform="translate(447.496 235.717)" fill="#3f3d56"/><path d="M467.066,266.507,460.29,257.8l3.941-3.066,3.209,4.126,10.839-11.442,3.625,3.434Z" fill="#fff"/><path d="M433.612,37.627l-34.693,7.939L384.261,17.921,413.926,6.339Z" fill="#2f2e41"/><path d="M507.154,373.863l13-11.815-28.04-63.25-24.5-30.16,40.031,17.327,4.165,44.118,19.906,6.849-2.58-55.085A17.945,17.945,0,0,0,517.9,266.035l-32.842-13.192-5.88-24.683-34.287-.491c-10.655,18.539-15.415,34.855-7.726,46.476l35.676,34.794Z" transform="translate(-44.713 -139.885)" fill="#2f2e41"/><path d="M513.215,365.769s1.848-5.523,4.745-4.252,11.012,7.711,11.012,7.711,13.554,1.917,5.065,6.829-11.81,4.606-12.081,3.911-2.473-2.237-2.473-2.237l-3.2,2.049-5.405.507s-7.077-11.988-4.8-12.306S513.333,368.123,513.215,365.769Z" transform="translate(-44.713 -139.885)" fill="#2f2e41"/><path d="M521.766,331.9s5.637-1.465,6.152,1.656-.453,13.436-.453,13.436,5.789,12.4-2.959,7.971-10.3-7.384-9.87-7.99.525-3.293.525-3.293l-3.465-1.565-3.374-4.253s6.184-12.472,7.693-10.737S519.856,333.283,521.766,331.9Z" transform="translate(-44.713 -139.885)" fill="#2f2e41"/><circle cx="12.566" cy="12.566" r="12.566" transform="translate(391.741 9.912)" fill="#ffb9b9"/><path d="M447.561,203.772l30.5-4.4c-4.554-8.242-9.249-15.754-15.558-14.914-5.613-3.929-5.937-10.244-4.517-17.347l-15.269,4.082c1.343,4.378.824,8.222-2.754,11.191C444.967,189.418,448.2,196.523,447.561,203.772Z" transform="translate(-44.713 -139.885)" fill="#ffb9b9"/><path d="M445.255,230.524c10.839,14.113,21.955,19.689,33.906-.485l.985-9c7.669-9.672,5.423-18.029-3.929-25.444l-4.511-10.605-6.8-1.1h0a6.919,6.919,0,0,1-5.719,11.431l-2.457-.174a6.919,6.919,0,0,1-4.755-2.386l-10.441-12.12-4.4,1.176a2.479,2.479,0,0,0-1.833,2.22l-1.426,20.2C440.159,211.194,443.771,220.087,445.255,230.524Z" transform="translate(-44.713 -139.885)" fill="#e6e6e6"/><path d="M440.4,221.926,416.4,217.051l15.945-14.836-6.069-10.975L400.5,218.651a3.665,3.665,0,0,0,2.349,6.062l34.9,3.865,1.432,6.316a5.367,5.367,0,0,0,8.127,3.334h0a5.367,5.367,0,0,0,.944-8.273Z" transform="translate(-44.713 -139.885)" fill="#ffb9b9"/><path d="M477.728,260.947l-3.187,8.3a6.136,6.136,0,0,0,4.235,8.152h0a6.137,6.137,0,0,0,7.549-6.947l-1.349-8.208,4.432-32.827-3.961-21.685-9.034,2.774,3,20.186Z" transform="translate(-44.713 -139.885)" fill="#ffb9b9"/><path d="M474.32,212.82l13.659-5.327-7.613-16.681a10.8,10.8,0,0,0-9.168-6.294l-3.5-.212Z" transform="translate(-44.713 -139.885)" fill="#e6e6e6"/><path d="M429.327,206.013l14.563-4.93-5.134-17.469a2.479,2.479,0,0,0-2.692-1.76h0a2.479,2.479,0,0,0-1.332.6l-14.877,13.2C422.7,200.342,425.731,200.46,429.327,206.013Z" transform="translate(-44.713 -139.885)" fill="#e6e6e6"/><path d="M457.37,141.962s7.685,1.446,9.463,11.031a17.6,17.6,0,0,1,.151,4.894c-.177,1.845.08,5.742,4.086,10.33a100.444,100.444,0,0,1,7.294,9.368h0l-8.03,2.138-3.588-13.305a68.063,68.063,0,0,0-7.953-18.28l-.074-.118s-2.667,7.127-9.816,8.1l2.2-2.9s-8.357,4.831-13.092,6.307a3.111,3.111,0,0,0-1,5.409l.1.079c3.483,2.645,10.587,8.956,7.78,15.062s.466,7.219.466,7.219l-6.036-2.3-2.762-1.183.279,2.043-13.486.283s-3.644-.022,2.829-9.75c0,0,1.562-3.647.28-6.434a14.8,14.8,0,0,1-1.495-6.782C425.376,153.37,429.507,133.418,457.37,141.962Z" transform="translate(-44.713 -139.885)" fill="#2f2e41"/></g></g></svg>